# xmcd
# Copyright (C) 1995-1998 Ti Kan
#
# Track frame offsets:
#       150
#       24017
#       40267
#       53485
#       68354
#       95071
#       106798
#       122606
#       145399
#
# Disc length: 2367 seconds
#
# Revision: 0
# Processed by: cddbd v1.5.2PL0 Copyright (c) Steve Scherf et al.
# Submitted via: CD-Transfer v1.0
#
DISCID=68093d09
DTITLE=Urban and Hauser - D. Urban, 
DYEAR=11
DGENRE=
TTITLE0=Alone
TTITLE1=Black Tattoo
TTITLE2=Everybody Hurts
TTITLE3=Moja Voda
TTITLE4=Kornjaèa
TTITLE5=Mala Voda
TTITLE6=Astronaut
TTITLE7=Ostavljam Te Samu
TTITLE8=Sarabande (Cello Suite Br. 2 U D-Molu)
EXTD=
EXTT0=
EXTT1=
EXTT2=
EXTT3=
EXTT4=
EXTT5=
EXTT6=
EXTT7=
EXTT8=
PLAYORDER=
